<svg width="60" height="66" viewBox="0 0 60 66" fill="none" xmlns="http://www.w3.org/2000/svg">
<path d="M0 32.6813C0 14.6319 13.4315 0 30 0C46.5686 0 60 14.6319 60 32.6813C60 50.7306 46.5686 65.3626 30 65.3626C13.4315 65.3626 0 50.7306 0 32.6813Z" fill="#D9D8D8"/>
<path fill-rule="evenodd" clip-rule="evenodd" d="M41.2704 24.2173C41.2704 30.6073 36.3473 35.7311 30.2028 35.7311C24.0605 35.7311 19.1353 30.6073 19.1353 24.2173C19.1353 17.8274 24.0605 12.7058 30.2028 12.7058C36.3473 12.7058 41.2704 17.8274 41.2704 24.2173ZM30.2028 56.219C21.1346 56.219 13.4781 54.6852 13.4781 48.7673C13.4781 42.8473 21.1827 41.3678 30.2028 41.3678C39.2731 41.3678 46.9276 42.9017 46.9276 48.8195C46.9276 54.7396 39.2229 56.219 30.2028 56.219Z" fill="#534D4D"/>
</svg>
