<svg width="20" height="20" viewBox="0 0 20 20" fill="none" xmlns="http://www.w3.org/2000/svg">
<path fill-rule="evenodd" clip-rule="evenodd" d="M14.6023 6.1633V7.44108C16.0376 7.88909 17.0833 9.18841 17.0833 10.7403V14.8544C17.0833 16.7756 15.4905 18.3333 13.5269 18.3333H6.474C4.50947 18.3333 2.91667 16.7756 2.91667 14.8544V10.7403C2.91667 9.18841 3.96329 7.88909 5.39774 7.44108V6.1633C5.40621 3.67895 7.46389 1.66663 9.9873 1.66663C12.5446 1.66663 14.6023 3.67895 14.6023 6.1633ZM10.0042 3.11583C11.7232 3.11583 13.1204 4.48222 13.1204 6.1633V7.26138H6.87961V6.14673C6.88808 4.47394 8.28527 3.11583 10.0042 3.11583ZM10.7409 13.7124C10.7409 14.1182 10.4107 14.4411 9.99577 14.4411C9.58932 14.4411 9.25907 14.1182 9.25907 13.7124V11.874C9.25907 11.4765 9.58932 11.1535 9.99577 11.1535C10.4107 11.1535 10.7409 11.4765 10.7409 11.874V13.7124Z" fill="#212121"/>
</svg>
