<svg width="20" height="20" viewBox="0 0 20 20" fill="none" xmlns="http://www.w3.org/2000/svg">
<path fill-rule="evenodd" clip-rule="evenodd" d="M8.1694 12.7104C8.68979 13.0632 9.32402 13.2765 9.99891 13.2765C11.7878 13.2765 13.2432 11.808 13.2432 10.003C13.2432 9.32208 13.0318 8.68215 12.6822 8.15708L11.7959 9.05134C11.9423 9.33029 12.0236 9.65846 12.0236 10.003C12.0236 11.127 11.1129 12.0459 9.99891 12.0459C9.6574 12.0459 9.33215 11.9638 9.05569 11.8162L8.1694 12.7104ZM15.3573 5.45789C16.5364 6.54085 17.5365 8.0012 18.2846 9.75691C18.3496 9.91279 18.3496 10.0933 18.2846 10.241C16.5445 14.3267 13.4465 16.7715 9.99891 16.7715H9.99078C8.42146 16.7715 6.9172 16.2547 5.59182 15.3112L4.01438 16.9028C3.89241 17.0259 3.73792 17.0833 3.58343 17.0833C3.42894 17.0833 3.26631 17.0259 3.15248 16.9028C2.9492 16.6977 2.91667 16.3695 3.0793 16.1316L3.10369 16.0988L15.1297 3.96472C15.1459 3.94831 15.1622 3.9319 15.1703 3.91549C15.1866 3.89908 15.2028 3.88267 15.211 3.86627L15.9753 3.09507C16.2192 2.85715 16.6014 2.85715 16.8372 3.09507C17.0811 3.33299 17.0811 3.72679 16.8372 3.96472L15.3573 5.45789ZM6.74864 10.0062C6.74864 10.2195 6.77304 10.4329 6.80556 10.6298L3.79703 13.6653C2.98392 12.7136 2.27651 11.565 1.71546 10.2442C1.65041 10.0965 1.65041 9.91599 1.71546 9.76011C3.45553 5.6744 6.55349 3.23774 9.99297 3.23774H10.0011C11.1639 3.23774 12.2941 3.51668 13.3349 4.04176L10.6191 6.78197C10.4239 6.74915 10.2125 6.72454 10.0011 6.72454C8.20412 6.72454 6.74864 8.1931 6.74864 10.0062Z" fill="#212121"/>
</svg>
